<svg width="21" height="24" viewBox="0 0 21 24" fill="none" xmlns="http://www.w3.org/2000/svg">
<path d="M2.78559 23.0249H18.6813C19.2836 23.0249 19.8612 22.7856 20.287 22.3598C20.7129 21.9339 20.9521 21.3563 20.9521 20.7541V8.26457C20.9521 7.96344 20.8325 7.67464 20.6196 7.46171C20.4066 7.24878 20.1178 7.12916 19.8167 7.12916H16.4105V6.24695C16.4105 3.28466 14.2498 0.63235 11.3012 0.345092C10.5119 0.266649 9.71497 0.35429 8.96163 0.602376C8.20828 0.850462 7.51521 1.2535 6.92701 1.78556C6.3388 2.31761 5.86849 2.96691 5.54632 3.69167C5.22415 4.41643 5.05727 5.20061 5.0564 5.99375V7.12916H1.65018C1.34905 7.12916 1.06025 7.24878 0.847324 7.46171C0.634394 7.67464 0.514771 7.96344 0.514771 8.26457V20.7541C0.514771 21.3563 0.754017 21.9339 1.17988 22.3598C1.60574 22.7856 2.18333 23.0249 2.78559 23.0249ZM16.4105 9.39997V11.6708H14.1397V9.39997H16.4105ZM7.32722 5.99375C7.32722 4.11578 8.85548 2.58752 10.7334 2.58752C12.6114 2.58752 14.1397 4.11578 14.1397 5.99375V7.12916H7.32722V5.99375ZM5.0564 9.39997H7.32722V11.6708H5.0564V9.39997Z" fill="#828282" fill-opacity="0.7"/>
</svg>
