<svg width="28" height="29" viewBox="0 0 28 29" fill="none" xmlns="http://www.w3.org/2000/svg">
<path d="M24.7746 9.37417C24.6701 9.22324 24.5307 9.09988 24.3681 9.01465C24.2056 8.92942 24.0248 8.88487 23.8413 8.88481H8.32363L7.01337 5.73973C6.84157 5.32556 6.55065 4.97172 6.17751 4.7231C5.80436 4.47447 5.36579 4.34224 4.9174 4.34318H2.26849V6.61399H4.9174L10.3038 19.5406C10.3901 19.7474 10.5356 19.9241 10.7221 20.0484C10.9086 20.1726 11.1277 20.2389 11.3518 20.2389H20.435C20.9085 20.2389 21.332 19.9448 21.4989 19.5031L24.9051 10.4199C24.9695 10.248 24.9913 10.0631 24.9685 9.88096C24.9458 9.69884 24.8792 9.52494 24.7746 9.37417Z" fill="black"/>
<path d="M11.9195 24.7805C12.8601 24.7805 13.6226 24.018 13.6226 23.0774C13.6226 22.1368 12.8601 21.3743 11.9195 21.3743C10.9789 21.3743 10.2164 22.1368 10.2164 23.0774C10.2164 24.018 10.9789 24.7805 11.9195 24.7805Z" fill="black"/>
<path d="M19.8674 24.7805C20.808 24.7805 21.5705 24.018 21.5705 23.0774C21.5705 22.1368 20.808 21.3743 19.8674 21.3743C18.9268 21.3743 18.1642 22.1368 18.1642 23.0774C18.1642 24.018 18.9268 24.7805 19.8674 24.7805Z" fill="black"/>
</svg>
