<svg width="24" height="21" viewBox="0 0 24 21" fill="none" xmlns="http://www.w3.org/2000/svg">
<path d="M21.3155 4.99375V2.72293C21.3155 1.47058 20.2971 0.452118 19.0447 0.452118H4.2844C2.40643 0.452118 0.878174 1.98038 0.878174 3.85834V17.4832C0.878174 19.9823 2.9151 20.8895 4.2844 20.8895H21.3155C22.5679 20.8895 23.5863 19.871 23.5863 18.6187V7.26457C23.5863 6.01221 22.5679 4.99375 21.3155 4.99375ZM19.0447 15.2124H16.7739V10.6708H19.0447V15.2124ZM4.2844 4.99375C3.99205 4.98067 3.71602 4.85534 3.51377 4.64384C3.31152 4.43234 3.19865 4.15098 3.19865 3.85834C3.19865 3.56571 3.31152 3.28435 3.51377 3.07285C3.71602 2.86135 3.99205 2.73601 4.2844 2.72293H19.0447V4.99375H4.2844Z" fill="#828282" fill-opacity="0.7"/>
</svg>
